<?xml version="1.0" encoding="UTF-8"?>
<svg id="Layer_1" xmlns="http://www.w3.org/2000/svg" xmlns:xlink="http://www.w3.org/1999/xlink" version="1.1" viewBox="0 0 32 32">
  <!-- Generator: Adobe Illustrator 29.3.1, SVG Export Plug-In . SVG Version: 2.1.0 Build 151)  -->
  <defs>
    <style>
      .st0 {
        fill: url(#linear-gradient2);
      }

      .st1 {
        fill: url(#linear-gradient1);
      }

      .st2 {
        fill: url(#linear-gradient3);
      }

      .st3 {
        fill: url(#linear-gradient4);
      }

      .st4 {
        fill: url(#linear-gradient);
      }

      .st5 {
        fill: #fff;
      }
    </style>
    <linearGradient id="linear-gradient" x1="108.3" y1="11.1" x2="79.8" y2="23.7" gradientTransform="translate(0 34) scale(1 -1)" gradientUnits="userSpaceOnUse">
      <stop offset="0" stop-color="#6bcaf8"/>
      <stop offset=".3" stop-color="#3e53ea"/>
      <stop offset=".7" stop-color="#0095f4"/>
      <stop offset="1" stop-color="#788cef"/>
    </linearGradient>
    <linearGradient id="linear-gradient1" x1="743.2" y1="-37.4" x2="514.7" y2="63.8" xlink:href="#linear-gradient"/>
    <linearGradient id="linear-gradient2" x1="70.9" y1="11.1" x2="42.4" y2="23.7" xlink:href="#linear-gradient"/>
    <linearGradient id="linear-gradient3" x1="42" y1="7.9" x2=".4" y2="26.3" xlink:href="#linear-gradient"/>
    <linearGradient id="linear-gradient4" x1="-202.1" y1="-7.2" x2="-306" y2="38.8" xlink:href="#linear-gradient"/>
  </defs>
  <rect class="st5" x="74.5" width="32" height="32"/>
  <path class="st4" d="M101.5,12.5v4l-2.4,1.9c-1.8,1.4-4.3,1.4-6.1,0l-1.5-1.2c-.6-.5-1.5-.5-2.2,0l-1.5,1.2c-.5.4-1,.6-1.5.8-.5.2-1,.3-1.5.3s-1.2-.1-1.8-.3c-.4-.2-.9-.4-1.2-.7l-2.4-1.9v-4l4.3,3.5c.6.5,1.5.5,2.2,0l1.5-1.2c1.8-1.4,4.3-1.4,6,0l1.5,1.2c.6.5,1.5.5,2.2,0l4.4-3.5h0Z"/>
  <path class="st1" d="M688.4-12v31.8l-19.2,15.5c-14.2,11.4-34.1,11.5-48.4.2l-11.6-9.2c-5.1-4.1-12.3-4.1-17.4,0l-11.6,9.2c-3.6,2.9-7.7,5-11.8,6.4-4,1.3-8.1,2-12.3,2s-9.8-.9-14.4-2.8c-3.5-1.4-6.8-3.3-9.9-5.8l-19.3-15.5V-12l34.8,28c5.1,4.1,12.3,4.1,17.5,0l11.6-9.2c14.2-11.2,34-11.2,48.2,0l11.6,9.2c5.1,4.1,12.3,4.1,17.4,0l34.8-28h0Z"/>
  <path class="st0" d="M64.1,12.5v4l-2.4,1.9c-1.8,1.4-4.3,1.4-6.1,0l-1.5-1.2c-.6-.5-1.5-.5-2.2,0l-1.5,1.2c-.5.4-1,.6-1.5.8-.5.2-1,.3-1.5.3s-1.2-.1-1.8-.3c-.4-.2-.9-.4-1.2-.7l-2.4-1.9v-4l4.3,3.5c.6.5,1.5.5,2.2,0l1.5-1.2c1.8-1.4,4.3-1.4,6,0l1.5,1.2c.6.5,1.5.5,2.2,0l4.4-3.5h0Z"/>
  <path class="st2" d="M32,10.9v5.8l-3.5,2.8c-2.6,2.1-6.2,2.1-8.8,0l-2.1-1.7c-.9-.7-2.2-.7-3.2,0l-2.1,1.7c-.7.5-1.4.9-2.1,1.2-.7.2-1.5.4-2.2.4s-1.8-.2-2.6-.5c-.6-.3-1.2-.6-1.8-1.1l-3.5-2.8v-5.8l6.3,5.1c.9.7,2.2.8,3.2,0l2.1-1.7c2.6-2,6.2-2,8.8,0l2.1,1.7c.9.7,2.2.7,3.2,0l6.3-5.1h0Z"/>
  <path class="st3" d="M-227,3.3v14.5l-8.8,7c-6.5,5.2-15.5,5.2-22,0l-5.3-4.2c-2.3-1.8-5.6-1.8-7.9,0l-5.3,4.2c-1.6,1.3-3.5,2.3-5.4,2.9-1.8.6-3.7.9-5.6.9s-4.4-.4-6.6-1.3c-1.6-.7-3.1-1.5-4.5-2.7l-8.8-7V3.3l15.8,12.7c2.3,1.9,5.6,1.9,7.9,0l5.3-4.2c6.5-5.1,15.5-5.1,21.9,0l5.3,4.2c2.3,1.9,5.6,1.8,7.9,0l15.8-12.7h0Z"/>
</svg>