<?xml version="1.0" encoding="UTF-8"?>
<svg id="Layer_1" data-name="Layer 1" xmlns="http://www.w3.org/2000/svg" viewBox="0 0 80 80">
  <defs>
    <style>
      .cls-1 {
        fill: #0d0d1e;
      }
    </style>
  </defs>
  <path class="cls-1" d="M80,27.28v14.47l-8.75,7.04c-6.46,5.2-15.52,5.23-22.01.08l-5.29-4.2c-2.33-1.85-5.58-1.85-7.9,0l-5.28,4.2c-1.65,1.31-3.48,2.28-5.37,2.93-1.81.61-3.69.91-5.59.91-2.23,0-4.45-.42-6.56-1.27-1.58-.65-3.11-1.52-4.49-2.65L0,41.74v-14.46l15.82,12.74c2.34,1.87,5.6,1.88,7.94.02l5.29-4.2c6.45-5.11,15.47-5.11,21.92,0l5.28,4.2c2.34,1.86,5.6,1.85,7.93-.02l15.83-12.74Z"/>
</svg>